:SAMPLES-PER-SECOND 30
:FULLY-SPECIFIED
:DEGREES
293
root  -1.9501 40.7231 -1.87247 13.8541 -72.0735 -4.44073
RightUpLeg  -10.3928 -0.680315 1.03361
RightLeg  -4.29929 -40.2459 5.81715
RightFoot  3.15462 0.20217 -1.41968
RightToes  -3.11842e-008 1.75238e-005 3.56266e-009
Spine  13.1182 2.64879 -5.31629
Spine1  11.1588 1.97441 1.13938
HEad  -22.5684 -6.69039 9.76585
LeftShoulder1  3.65481 -7.88088 -25.9793
LeftArm  -29.2085 -18.2773 -53.6576
LeftForeArm  116.069 -75.7953 -131.21
LeftHand  -0.405692 -4.08059 5.24
RightShoulder  4.04716 8.84435 26.7542
RightArm  -30.4916 23.8353 44.1721
RightForeArm  107.393 77.5403 121.116
RightHand  -0.56385 8.95317 -4.93835
LeftUpLeg  -16.0465 0.146098 5.83935
LeftLeg  -1.26769 -1.41813 0.22952
LeftFoot  7.92267 0.889089 -5.52183
LeftToes  4.78904e-008 1.4679e-008 1.35657e-009
294
root  -2.08338 40.7328 -1.76529 12.4896 -71.4193 -3.92664
RightUpLeg  -9.45788 -1.04758 0.850049
RightLeg  -3.39566 -40.5839 5.2021
RightFoot  2.60517 0.131477 -0.927742
RightToes  -3.11842e-008 1.75238e-005 3.56266e-009
Spine  12.4265 2.34886 -5.20764
Spine1  11.0966 1.63157 1.41563
HEad  -21.7488 -6.94143 9.57418
LeftShoulder1  3.82532 -8.32695 -26.2209
LeftArm  -18.9744 -16.3175 -54.2528
LeftForeArm  106.248 -76.7409 -124.937
LeftHand  -0.453889 -3.50331 6.21332
RightShoulder  4.03783 8.77442 26.8694
RightArm  -26.4879 21.5003 43.7617
RightForeArm  98.2104 77.0446 121.282
RightHand  -0.715163 8.714 -6.25567
LeftUpLeg  -15.3022 0.0137222 5.52455
LeftLeg  -0.524365 -2.15519 0.266256
LeftFoot  7.12544 0.872169 -5.63045
LeftToes  4.78904e-008 1.4679e-008 1.35657e-009
295
root  -2.27701 40.7477 -1.66368 11.0137 -70.9439 -3.43982
RightUpLeg  -8.24601 -1.54016 0.629126
RightLeg  -2.56076 -40.6183 4.74959
RightFoot  1.91614 0.054557 -0.356766
RightToes  -3.11842e-008 1.75238e-005 3.56266e-009
Spine  11.1333 1.85785 -5.48614
Spine1  11.3415 1.09259 1.68672
HEad  -20.0445 -7.13656 9.4659
LeftShoulder1  3.92855 -8.67944 -26.13
LeftArm  -9.72988 -16.0957 -55.1934
LeftForeArm  96.9384 -77.2597 -119.816
LeftHand  -0.492876 -1.98437 7.93645
RightShoulder  4.16797 9.1087 27.0314
RightArm  -22.5094 19.5218 44.761
RightForeArm  94.4701 75.8786 126.188
RightHand  -0.873121 8.37626 -7.70892
LeftUpLeg  -14.2848 -0.120839 5.2179
LeftLeg  0.256552 -2.65731 0.374349
LeftFoot  6.17988 0.854639 -5.78804
LeftToes  4.78904e-008 1.4679e-008 1.35657e-009
296
root  -2.5023 40.7677 -1.54044 9.57776 -71.0287 -3.01514
RightUpLeg  -6.94565 -1.76433 0.479226
RightLeg  -1.88186 -40.3708 4.1259
RightFoot  1.38649 -0.00681297 0.144837
RightToes  -3.11842e-008 1.75238e-005 3.56266e-009
Spine  10.1003 1.51122 -5.73726
Spine1  10.6611 0.776049 1.76232
HEad  -17.4264 -7.28291 8.91633
LeftShoulder1  4.07725 -9.11784 -26.1849
LeftArm  -2.0612 -16.3829 -56.8906
LeftForeArm  94.7374 -76.6713 -122.385
LeftHand  -0.526416 -1.51224 9.00869
RightShoulder  4.32596 9.28549 27.8375
RightArm  -18.7662 17.5687 45.9225
RightForeArm  98.4784 73.8801 134.455
RightHand  -1.0207 8.53163 -8.85774
LeftUpLeg  -12.9449 -0.0736324 4.96988
LeftLeg  0.762255 -2.75606 0.354936
LeftFoot  5.16749 0.823566 -5.89049
LeftToes  4.78904e-008 1.4679e-008 1.35657e-009
297
root  -2.74955 40.7972 -1.40208 8.36353 -71.7031 -2.82538
RightUpLeg  -5.42865 -1.87583 0.372621
RightLeg  -1.79759 -39.6483 3.86507
RightFoot  1.03472 -0.0470655 0.498971
RightToes  -3.11842e-008 1.75238e-005 3.56266e-009
Spine  9.34072 1.20221 -6.6234
Spine1  9.17177 0.2835 2.50193
HEad  -13.8817 -7.02198 8.18429
LeftShoulder1  4.21341 -9.31574 -26.7734
LeftArm  2.56566 -15.9076 -58.7004
LeftForeArm  105.553 -74.729 -132.926
LeftHand  -0.544837 -2.15114 8.61532
RightShoulder  4.42327 9.41067 28.278
RightArm  -14.2035 15.74 47.1261
RightForeArm  105.318 70.7766 143.372
RightHand  -1.07769 8.63433 -9.26448
LeftUpLeg  -11.3216 0.0693184 4.79759
LeftLeg  1.00879 -2.3939 0.358461
LeftFoot  4.31938 0.771431 -5.79696
LeftToes  4.78904e-008 1.4679e-008 1.35657e-009
